<svg width="12px" height="10px" viewBox="0 0 12 10" version="1.1" xmlns="http://www.w3.org/2000/svg" xmlns:xlink="http://www.w3.org/1999/xlink"><g stroke="none" stroke-width="1" fill="none" fill-rule="evenodd"><g transform="translate(0.000000, -1.000000)" fill-rule="nonzero"><g transform="translate(0.000000, 1.000000)"><polygon fill="#333333" points="11.7091034 0.311586207 11.7091034 9.05172414 0.0422068966 9.05172414 0.0422068966 0.311586207"></polygon><path d="M1.50041379,1.20082759 L5.4062069,5.2262069 C5.60593103,5.39282759 5.74910345,5.47613793 5.83572414,5.47613793 C5.88234483,5.47613793 5.94055172,5.45613793 6.01034483,5.41613793 C6.08013793,5.37613793 6.13834483,5.33613793 6.18496552,5.29613793 L6.25489655,5.23613793 L10.1904828,1.20041379 L1.5,1.20041379 L1.50041379,1.20082759 Z" fill="#FFFFFF"></path><polygon fill="#FFFFFF" points="8.02303448 5.06648276 10.6998621 7.76358621 10.6998621 2.36937931"></polygon><polygon fill="#FFFFFF" points="1.05062069 2.42937931 1.05062069 7.73337931 3.68772414 5.08634483"></polygon><path d="M9.64137931,8.07310345 L7.344,5.74551724 L6.96455172,6.12496552 C6.80482759,6.27806897 6.70496552,6.36468966 6.66496552,6.38482759 C6.40537931,6.53131034 6.13903448,6.60455172 5.86593103,6.60455172 C5.61296552,6.60455172 5.32993103,6.51793103 5.01682759,6.34468966 L4.75696552,6.16510345 L4.35724138,5.75544828 L2.04,8.07268966 L9.64137931,8.07268966 L9.64137931,8.07310345 Z" fill="#FFFFFF"></path></g></g></g></svg>
