<svg width="10px" height="12px" viewBox="0 0 10 12" version="1.1" xmlns="http://www.w3.org/2000/svg" xmlns:xlink="http://www.w3.org/1999/xlink"><g stroke="none" stroke-width="1" fill="none" fill-rule="evenodd"><g transform="translate(-1.000000, 0.000000)" fill="#333333" fill-rule="nonzero"><g transform="translate(1.000000, 0.000000)"><path d="M8.09729032,5.65664516 L8.09729032,3.49819355 C8.09109677,2.53251613 7.75780645,1.71948387 7.09741935,1.05909677 C6.43703226,0.398709677 5.624,0.0623225806 4.65832258,0.0499354839 C3.71767742,0.0375483871 2.91096774,0.361548387 2.23819355,1.02193548 C1.56541935,1.68232258 1.2196129,2.49212903 1.20077419,3.45135484 L1.20077419,5.65664516 C1.15716129,5.66283871 1.11045161,5.66903226 1.06064516,5.67522581 C1.01083871,5.68141935 0.976516129,5.68451613 0.957677419,5.68451613 C0.64,5.69070968 0.423483871,5.75303226 0.308129032,5.87148387 C0.192774194,5.98993548 0.135096774,6.19858065 0.135096774,6.49741935 L0.135096774,11.1882581 C0.135096774,11.6865806 0.378064516,11.9357419 0.864,11.9357419 L8.39574194,11.9357419 C8.65122581,11.9357419 8.83806452,11.8765161 8.95625806,11.7580645 C9.07445161,11.6396129 9.13367742,11.4527742 9.13393548,11.1975484 L9.13393548,6.42270968 C9.13393548,6.16722581 9.07625806,5.98193548 8.96090323,5.86683871 C8.84554839,5.75174194 8.66025806,5.69096774 8.40503226,5.68451613 C8.3676129,5.68451613 8.31316129,5.67987097 8.24167742,5.67058065 C8.17019355,5.66129032 8.12193548,5.65664516 8.09690323,5.65664516 L8.09729032,5.65664516 Z M6.42464516,5.66593548 L2.8923871,5.66593548 C2.88,5.54129032 2.87380645,5.45716129 2.87380645,5.41354839 L2.86451613,4.45122581 C2.86451613,3.80322581 2.8676129,3.47922581 2.87380645,3.47922581 C2.88,2.98709677 3.04658065,2.57277419 3.37354839,2.23625806 C3.70051613,1.89974194 4.11006452,1.7283871 4.60219355,1.72219355 C5.07574194,1.7036129 5.48851613,1.85780645 5.84051613,2.18477419 C6.19251613,2.51174194 6.38090323,2.91819355 6.40567742,3.40412903 C6.41806452,3.60980645 6.42425806,4.22658065 6.42425806,5.25445161 L6.42425806,5.66554839 L6.42464516,5.66593548 Z"></path></g></g></g></svg>
