<svg width="11px" height="12px" viewBox="0 0 11 12" version="1.1" xmlns="http://www.w3.org/2000/svg" xmlns:xlink="http://www.w3.org/1999/xlink"><g stroke="none" stroke-width="1" fill="none" fill-rule="evenodd"><g transform="translate(-1.000000, 0.000000)" fill="#333333" fill-rule="nonzero"><g transform="translate(1.000000, 0.000000)"><path d="M5.03958621,5.03917241 C5.69227586,5.03917241 6.24993103,4.81103448 6.71255172,4.35475862 C7.17517241,3.89848276 7.40662069,3.35406897 7.40689655,2.72151724 C7.40689655,2.08234483 7.17213793,1.52965517 6.70262069,1.06344828 C6.23310345,0.597241379 5.67875862,0.364137931 5.03958621,0.364137931 C4.38689655,0.344275862 3.82924138,0.565655172 3.36662069,1.02827586 C2.904,1.49089655 2.67255172,2.05531034 2.67227586,2.72151724 C2.67227586,3.3742069 2.89875862,3.92358621 3.35172414,4.36965517 C3.80468966,4.81572414 4.36744828,5.03875862 5.04,5.03875862 L5.03958621,5.03917241 Z M0.264827586,11.7918621 L10.173931,11.7918621 C10.0208276,10.6131034 9.89434483,9.83393103 9.79448276,9.45434483 C9.568,8.60855172 9.15517241,7.88441379 8.556,7.28193103 C7.95682759,6.67944828 7.29089655,6.26317241 6.5582069,6.03310345 C5.82551724,5.80303448 5.04965517,5.76303448 4.23062069,5.91310345 C3.41158621,6.06317241 2.67903448,6.42110345 2.03296552,6.98689655 C1.40041379,7.55296552 0.964275862,8.2222069 0.724551724,8.99462069 C0.484827586,9.76703448 0.331724138,10.6993103 0.265241379,11.7914483 L0.264827586,11.7918621 Z"></path></g></g></g></svg>
